<?xml version="1.0" encoding="utf-8"?>
<!-- Generator: Adobe Illustrator 23.0.1, SVG Export Plug-In . SVG Version: 6.00 Build 0)  -->
<svg version="1.1" id="Layer_1" xmlns="http://www.w3.org/2000/svg" xmlns:xlink="http://www.w3.org/1999/xlink" x="0px" y="0px"
	 viewBox="0 0 167.4 167.4" style="enable-background:new 0 0 167.4 167.4;" xml:space="preserve">
<style type="text/css">
	.st0{fill:#22ADE4;}
	.st1{fill:#FFFFFF;}
</style>
<title>Asset 4</title>
<g>
	<g id="Layer_1-2">
		<path class="st0" d="M36,0.2h95.1c20,0,36.1,16.2,36.1,36.1v95.1c0,20-16.2,36.1-36.1,36.1H36c-20,0-36.1-16.2-36.1-36.1V36.3
			C-0.1,16.4,16.1,0.2,36,0.2z"/>
	</g>
</g>
<g>
	<path class="st1" d="M42.2,69.9v27.5h-6.7V85.9H25.1v11.5h-6.6V69.9h6.6v10.6h10.4V69.9H42.2z"/>
	<path class="st1" d="M53.2,69.9v15.8c0,1.8,0.4,3.2,1.2,4.2s2,1.4,3.6,1.4s2.7-0.5,3.6-1.4c0.8-1,1.2-2.3,1.2-4.2V69.9h6.6v15.8
		c0,2.6-0.5,4.8-1.5,6.5s-2.4,3.1-4.1,4s-3.7,1.3-5.9,1.3s-4.1-0.4-5.8-1.3s-3-2.2-4-4s-1.4-4-1.4-6.6V69.9H53.2z"/>
	<path class="st1" d="M104.7,70.1v27.3h-6.6v-17l-5.9,17.1h-5.7l-5.9-17.1v17.1H74V70.1h8.1l7.4,19l7.3-19H104.7z"/>
	<path class="st1" d="M129.7,85.7c1,1.2,1.5,2.6,1.5,4.2c0,2.4-0.8,4.2-2.3,5.5c-1.6,1.3-3.8,2-6.7,2h-12.8V69.9h12.5
		c2.8,0,5,0.6,6.5,1.8c1.5,1.2,2.3,3,2.3,5.2c0,1.7-0.4,3-1.3,4.1c-0.9,1.1-2,1.8-3.5,2.2C127.4,83.7,128.7,84.5,129.7,85.7z
		 M115.9,81.2h4.4c2.3,0,3.5-1,3.5-3s-1.2-3-3.5-3H116L115.9,81.2L115.9,81.2z M124.4,89c0-1-0.3-1.8-1-2.3
		c-0.6-0.6-1.6-0.8-2.8-0.8h-4.7V92h4.7C123.1,92,124.4,91,124.4,89z"/>
	<path class="st1" d="M141.3,92.3h8.9v5.1h-15.5V69.9h6.6V92.3z"/>
</g>
<path class="st1" d="M151.6,66.5v0.3h-0.8v2.5h-0.4v-2.5h-0.8v-0.3H151.6z"/>
<path class="st1" d="M154.8,66.6v2.8h-0.4v-2.3l-0.9,2.3h-0.3l-0.9-2.2v2.2h-0.4v-2.8h0.4l1,2.3l1-2.3H154.8z"/>
</svg>
